<svg id="Capa_1" enable-background="new 0 0 512 512" height="512" viewBox="0 0 512 512" width="512" xmlns="http://www.w3.org/2000/svg"><g><g><path clip-rule="evenodd" d="m64.418 17.675-46.743 46.743c-10.233 10.233-10.233 27.014 0 37.247l31.039 31.068 7.852-7.852 68.315-68.315 7.852-7.852-31.068-31.039c-10.233-10.233-27.014-10.233-37.247 0z" fill="#ffda8f" fill-rule="evenodd"/></g><g><path clip-rule="evenodd" d="m272.14 113.797c-55.417-55.417-105.137-15.109-127.388-37.36l-19.871-19.871-68.315 68.315 19.871 19.871c22.252 22.252-18.057 71.971 37.36 127.388l24.179 24.179 40.45-40.45c1.247-20.75 10.233-39.486 24.094-53.348 13.861-13.861 32.598-22.847 53.348-24.094l40.45-40.45z" fill="#b7eabc" fill-rule="evenodd"/></g><g><path clip-rule="evenodd" d="m407.38 249.009-111.061-111.032-40.45 40.45c-20.75 1.247-39.486 10.233-53.348 24.094-13.861 13.861-22.847 32.598-24.094 53.348l-40.45 40.45 111.032 111.061 40.479-40.479c20.721-1.247 39.458-10.233 53.348-24.066 13.833-13.89 22.819-32.627 24.066-53.348z" fill="#ff7d95" fill-rule="evenodd"/></g><g><path clip-rule="evenodd" d="m342.835 342.835c-13.89 13.833-32.627 22.819-53.348 24.066l-40.479 40.479 81.042 81.014c8.391 8.391 19.984 13.606 32.797 13.606 25.625 0 46.375-20.778 46.375-46.403 25.625 0 46.375-20.749 46.375-46.375 25.625 0 46.403-20.75 46.403-46.375 0-12.813-5.216-24.406-13.606-32.797l-81.014-81.042-40.479 40.479c-1.247 20.722-10.233 39.459-24.066 53.348z" fill="#b7eabc" fill-rule="evenodd"/></g><g><path d="m512 362.848c0-15.046-5.872-29.205-16.535-39.868l-80.741-80.74c-.092-.1-.176-.205-.273-.302s-.201-.18-.301-.272l-26.969-26.968c-3.906-3.904-10.236-3.904-14.143 0-3.905 3.905-3.905 10.237 0 14.143l20.184 20.184-33.393 33.393c-1.729 1.729-2.764 4.03-2.911 6.471-1.059 17.594-8.577 34.247-21.141 46.862-12.645 12.593-29.298 20.111-46.892 21.17-2.44.147-4.742 1.183-6.471 2.911l-33.393 33.393-96.904-96.904 33.379-33.379c1.729-1.729 2.764-4.031 2.911-6.472 1.06-17.628 8.583-34.275 21.184-46.876 12.601-12.602 29.249-20.125 46.877-21.184 2.44-.147 4.743-1.183 6.471-2.911l33.379-33.379 12.658 12.658c1.953 1.952 4.512 2.929 7.071 2.929s5.118-.977 7.071-2.929c3.905-3.905 3.905-10.237 0-14.143l-19.723-19.724c-.002-.002-.003-.004-.005-.006s-.004-.003-.006-.005l-24.174-24.175c-37.107-37.106-72.329-34.951-98.05-33.377-15.261.935-24.146 1.21-29.339-3.983l-12.8-12.799.781-.781c1.875-1.876 2.929-4.421 2.929-7.073 0-2.653-1.055-5.197-2.932-7.072l-31.064-31.036c-6.837-6.838-15.962-10.604-25.693-10.604s-18.857 3.766-25.695 10.604l-46.743 46.743c-6.838 6.838-10.604 15.963-10.604 25.694s3.766 18.856 10.601 25.691l31.039 31.068c1.875 1.877 4.419 2.932 7.072 2.933h.002c2.652 0 5.196-1.054 7.071-2.929l.781-.781 12.8 12.799c5.192 5.192 4.917 14.079 3.983 29.338-1.574 25.72-3.73 60.943 33.377 98.051l24.175 24.175c.001.001.003.003.004.005s.003.003.005.004l110.77 110.77c.088.095.167.194.259.286s.191.171.286.258l80.755 80.755c10.663 10.664 24.822 16.536 39.868 16.536 27.942 0 51.189-20.449 55.607-47.172 23.701-3.923 42.451-22.672 46.373-46.373 26.723-4.418 47.172-27.665 47.172-55.607zm-487.254-268.254c-3.06-3.061-4.746-7.163-4.746-11.553s1.686-8.492 4.746-11.552l46.743-46.743c3.06-3.06 7.163-4.746 11.553-4.746s8.492 1.686 11.556 4.749l23.99 23.968-69.87 69.87zm68.566 87.788c1.035-16.911 2.013-32.886-9.804-44.702l-12.799-12.799 54.172-54.172 12.8 12.799c11.817 11.817 27.792 10.838 44.703 9.804 24.351-1.49 51.95-3.18 82.686 27.557l17.108 17.109-30.783 30.783c-21.067 2.164-40.806 11.554-55.944 26.69-15.137 15.138-24.526 34.876-26.689 55.943l-30.783 30.783-17.108-17.108c-30.739-30.737-29.05-58.337-27.559-82.687zm371.195 215.735c-2.151-10.807-7.436-20.755-15.404-28.75-3.899-3.911-10.229-3.921-14.143-.023-3.911 3.898-3.922 10.23-.023 14.143 6.874 6.897 10.66 16.037 10.66 25.737 0 20.057-16.317 36.374-36.374 36.374-9.7 0-18.84-3.786-25.737-10.66-3.913-3.899-10.243-3.889-14.143.023-3.898 3.912-3.888 10.244.023 14.143 7.995 7.968 17.944 13.253 28.75 15.404-3.981 15.778-18.282 27.492-35.268 27.492-9.704 0-18.84-3.792-25.726-10.678l-73.956-73.957 30.797-30.798c21.023-2.162 40.758-11.538 55.958-26.676 15.11-15.172 24.484-34.905 26.646-55.929l30.798-30.797 73.957 73.956c6.886 6.886 10.678 16.021 10.678 25.726 0 16.987-11.714 31.288-27.493 35.27z"/><path d="m293.725 212.854c-3.906-3.904-10.236-3.904-14.143 0l-65.594 65.594c-3.905 3.905-3.905 10.237 0 14.143 1.953 1.952 4.512 2.929 7.071 2.929s5.119-.977 7.071-2.929l65.594-65.594c3.906-3.905 3.906-10.237.001-14.143z"/><path d="m313.598 246.87-65.594 65.594c-3.905 3.905-3.905 10.237 0 14.143 1.953 1.952 4.512 2.929 7.071 2.929 2.56 0 5.118-.977 7.071-2.929l65.594-65.594c3.905-3.905 3.905-10.237 0-14.143-3.906-3.904-10.236-3.904-14.142 0z"/><path d="m340.328 197.035c1.946 1.945 4.486 2.915 7.029 2.915 2.562 0 5.125-.984 7.085-2.943 3.905-3.905 3.877-10.266-.028-14.171-3.906-3.904-10.236-3.904-14.143 0-3.905 3.905-3.905 10.237 0 14.143z"/></g></g></svg>