<svg height="480pt" viewBox="0 -16 480 480" width="480pt" xmlns="http://www.w3.org/2000/svg"><path d="m208 296.019531c0 30.929688-25.070312 56-56 56s-56-25.070312-56-56c0-30.925781 25.070312-56 56-56s56 25.074219 56 56zm0 0" fill="#e3584b"/><path d="m207.359375 304.019531c3.324219-21.789062-6.441406-43.496093-24.949219-55.464843-18.507812-11.96875-42.3125-11.96875-60.820312 0-18.507813 11.96875-28.273438 33.675781-24.949219 55.464843zm0 0" fill="#d45246"/><path d="m320.480469 351.21875-3.945313 3.945312c-6.527344 6.527344-17.109375 6.527344-23.640625 0-6.523437-6.527343-6.523437-17.109374 0-23.640624l3.945313-3.945313-2.054688-6.566406c-7.289062-23.292969-1.046875-48.707031 16.207032-65.96875 17.253906-17.261719 42.664062-23.515625 65.960937-16.238281l6.566406 2.054687 3.945313-3.945313c6.527344-6.523437 17.109375-6.523437 23.640625 0 6.523437 6.53125 6.523437 17.113282 0 23.640626l-3.945313 3.945312 1.503906 4.070312c9.125 24.738282 2.550782 52.535157-16.6875 70.566407-19.238281 18.027343-47.402343 22.789062-71.496093 12.082031zm0 0" fill="#ffc24f"/><path d="m411.480469 304.019531c2.390625-11.847656 1.414062-24.125-2.816407-35.449219l-1.464843-4.070312 3.945312-3.945312c6.285157-6.566407 6.171875-16.953126-.257812-23.382813-6.425781-6.429687-16.816407-6.542969-23.382813-.257813l-3.945312 3.945313-6.566406-2.054687c-20.359376-6.367188-42.542969-2.4375-59.472657 10.535156-16.933593 12.972656-26.503906 33.367187-25.65625 54.679687zm0 0" fill="#ffa217"/><path d="m179.105469 272.019531c1.613281 4.644531 4.628906 8.675781 8.628906 11.535157 5.066406 3.628906 7.515625 9.902343 6.25 16-.289063 1.480468-.433594 2.988281-.433594 4.496093.007813 10.90625 7.371094 20.4375 17.921875 23.203125 3.488282.78125 5.992188 3.839844 6.078125 7.414063-.292969 11.980469 7.984375 22.476562 19.707031 24.984375 4.089844.730468 8.304688.398437 12.230469-.96875 10.390625-3.691406 21.734375-3.691406 32.128907 0 3.925781 1.367187 8.136718 1.699218 12.230468.96875 11.71875-2.507813 19.996094-13.003906 19.703125-24.984375.082031-3.574219 2.585938-6.632813 6.074219-7.414063 12.214844-3.199218 19.863281-15.316406 17.496094-27.722656-1.265625-6.097656 1.183594-12.371094 6.246094-16 3.996093-2.851562 7.011718-6.875 8.632812-11.511719zm0 0" fill="#81ad2b"/><path d="m187.734375 283.554688c5.066406 3.628906 7.515625 9.902343 6.25 16-.289063 1.480468-.433594 2.988281-.433594 4.496093h144c0-1.507812-.144531-3.011719-.429687-4.496093-1.265625-6.097657 1.183594-12.371094 6.246094-16 4-2.859376 7.015624-6.890626 8.632812-11.535157h-172.894531c1.613281 4.644531 4.628906 8.675781 8.628906 11.535157zm0 0" fill="#648c15"/><path d="m135.816406 205.84375-31.816406 18.175781-31.816406-18.175781c-14.957032-8.546875-24.183594-24.453125-24.183594-41.679688v-100.144531c0-30.925781 25.070312-56 56-56s56 25.074219 56 56v100.144531c0 17.226563-9.226562 33.132813-24.183594 41.679688zm0 0" fill="#81ad2b"/><path d="m137.65625 113.675781-11.3125-11.3125-14.34375 14.34375v-25.375l25.65625-25.65625-11.3125-11.3125-14.34375 14.34375v-28.6875h-16v28.6875l-14.34375-14.34375-11.3125 11.3125 25.65625 25.65625v25.375l-14.34375-14.34375-11.3125 11.3125 25.65625 25.65625v25.375l-14.34375-14.34375-11.3125 11.3125 25.65625 25.65625v60.6875h16v-60.6875l25.65625-25.65625-11.3125-11.3125-14.34375 14.34375v-25.375zm0 0" fill="#648c15"/><path d="m333.046875 132.5c-2.953125-5.269531-2.953125-11.691406 0-16.960938 5.878906-10.671874 2.773437-24.058593-7.199219-31.054687-5.066406-3.628906-7.515625-9.902344-6.246094-16 2.332032-12.390625-5.320312-24.476563-17.523437-27.664063-3.496094-.785156-6.007813-3.855468-6.078125-7.441406.296875-11.980468-7.980469-22.476562-19.703125-24.984375-4.09375-.730469-8.304687-.398437-12.234375.96875-10.390625 3.691407-21.734375 3.691407-32.125 0-3.929688-1.367187-8.140625-1.699219-12.234375-.96875-11.722656 2.507813-20 13.003907-19.703125 24.984375-.082031 3.578125-2.589844 6.636719-6.078125 7.417969-12.214844 3.199219-19.859375 15.316406-17.488281 27.71875 1.265625 6.101563-1.183594 12.371094-6.25 16-9.972656 7-13.078125 20.382813-7.199219 31.054687 2.953125 5.269532 2.953125 11.695313 0 16.960938-5.699219 10.363281-2.945313 23.335938 6.472656 30.488281 4.132813 3.484375 6.527344 8.609375 6.542969 14.015625.0625 1.363282.238281 2.71875.527344 4.050782 1.671875 6.640624 6.015625 12.292968 12 15.621093 5.84375 3.644531 13.066406 4.328125 19.488281 1.839844l10.921875 22.34375c12.894531 26.386719 39.695312 43.121094 69.0625 43.128906v-65.472656c6.421875 2.488281 13.644531 1.804687 19.488281-1.839844 5.96875-3.335937 10.296875-8.988281 11.960938-15.621093.296875-1.332032.480469-2.6875.550781-4.050782.019531-5.425781 2.4375-10.566406 6.601562-14.046875 9.414063-7.15625 12.167969-20.125 6.46875-30.488281zm0 0" fill="#648c15"/><path d="m256 144.019531c-.007812 7.453125 3.480469 14.472657 9.425781 18.96875 4.152344 3.484375 6.558594 8.625 6.574219 14.046875.0625 1.363282.238281 2.71875.527344 4.050782 1.664062 6.632812 5.988281 12.285156 11.960937 15.621093 5.84375 3.644531 13.0625 4.328125 19.488281 1.839844v65.472656c29.375 0 56.179688-16.738281 69.078126-43.128906l10.945312-22.34375c6.421875 2.488281 13.644531 1.804687 19.488281-1.839844 5.96875-3.335937 10.296875-8.988281 11.960938-15.621093.296875-1.332032.480469-2.6875.550781-4.050782.019531-5.425781 2.4375-10.566406 6.601562-14.046875 9.414063-7.15625 12.167969-20.125 6.46875-30.488281-2.949218-5.269531-2.949218-11.691406 0-16.960938 5.878907-10.671874 2.773438-24.058593-7.199218-31.054687-5.0625-3.628906-7.511719-9.902344-6.246094-16 2.332031-12.398437-5.335938-24.488281-17.546875-27.664063-3.496094-.785156-6.007813-3.855468-6.078125-7.441406.296875-11.980468-7.980469-22.476562-19.703125-24.984375-4.09375-.730469-8.304687-.398437-12.234375.96875-10.390625 3.691407-21.734375 3.691407-32.125 0-3.929688-1.367187-8.140625-1.699219-12.234375-.96875-11.722656 2.507813-20 13.003907-19.703125 24.984375-.082031 3.578125-2.589844 6.636719-6.078125 7.417969-12.214844 3.199219-19.859375 15.316406-17.488281 27.71875 1.265625 6.101563-1.183594 12.371094-6.25 16-9.972656 7-13.078125 20.382813-7.199219 31.054687 2.953125 5.269532 2.953125 11.695313 0 16.960938-1.949219 3.515625-2.976563 7.46875-2.984375 11.488281zm0 0" fill="#648c15"/><path d="m381.046875 132.5c-2.953125-5.269531-2.953125-11.691406 0-16.960938 5.878906-10.671874 2.773437-24.058593-7.199219-31.054687-5.066406-3.628906-7.515625-9.902344-6.246094-16 2.332032-12.390625-5.320312-24.476563-17.523437-27.664063-3.496094-.78125-6.007813-3.855468-6.078125-7.441406.296875-11.980468-7.980469-22.476562-19.703125-24.984375-4.09375-.730469-8.304687-.398437-12.234375.96875-10.390625 3.691407-21.734375 3.691407-32.125 0-3.929688-1.367187-8.140625-1.699219-12.234375-.96875-11.722656 2.507813-20 13.003907-19.703125 24.984375-.078125 3.578125-2.589844 6.636719-6.078125 7.417969-12.214844 3.199219-19.859375 15.316406-17.488281 27.71875 1.265625 6.101563-1.183594 12.371094-6.25 16-9.972656 7-13.078125 20.382813-7.199219 31.054687 2.953125 5.269532 2.953125 11.695313 0 16.960938-5.699219 10.363281-2.945313 23.335938 6.472656 30.488281 4.132813 3.484375 6.527344 8.609375 6.542969 14.015625.0625 1.363282.238281 2.71875.527344 4.050782 1.671875 6.640624 6.015625 12.292968 12 15.621093 5.84375 3.644531 13.066406 4.328125 19.488281 1.839844l10.304687 42.160156c3.34375 13.679688 15.597657 23.304688 29.679688 23.3125 14.085938 0 26.347656-9.628906 29.695312-23.3125l10.304688-42.160156c6.421875 2.488281 13.644531 1.804687 19.488281-1.839844 5.96875-3.335937 10.296875-8.988281 11.960938-15.621093.296875-1.332032.480469-2.6875.550781-4.050782.019531-5.425781 2.4375-10.566406 6.601562-14.046875 9.414063-7.15625 12.167969-20.125 6.46875-30.488281zm0 0" fill="#81ad2b"/><path d="m312 169.363281-11.558594 7.710938v-20.773438l44.429688-29.625-8.871094-13.3125-35.558594 23.710938v-37.054688l28.796875-21.597656-9.597656-12.800781-19.199219 14.398437v-40h-16v40l-19.203125-14.398437-9.597656 12.800781 28.800781 21.597656v37.054688l-35.570312-23.710938-8.871094 13.3125 44.441406 29.625v20.773438l-11.570312-7.710938-8.871094 13.3125 20.441406 13.625v19.71875h16v-19.71875l20.429688-13.625zm0 0" fill="#648c15"/><path d="m80 152.019531c-12.699219-.523437-23.429688 9.320313-24 22.015625-.570312-12.695312-11.300781-22.539062-24-22.015625-6.726562-.347656-13.257812 2.3125-17.828125 7.257813-4.570313 4.945312-6.710937 11.664062-5.835937 18.34375l10.152343 55.917968c1.917969 8.675782 9.742188 14.761719 18.625 14.480469 9.992188.410157 18.4375-7.335937 18.886719-17.328125.449219 9.992188 8.894531 17.738282 18.886719 17.328125 8.882812.28125 16.707031-5.804687 18.625-14.480469l10.152343-55.917968c.875-6.679688-1.265624-13.398438-5.835937-18.34375-4.570313-4.945313-11.101563-7.605469-17.828125-7.257813zm0 0" fill="#ffa217"/><path d="m64 176.019531h-16v-22.703125c-.015625-18.558594 11.863281-35.035156 29.472656-40.886718l5.054688 15.199218c-11.0625 3.675782-18.53125 14.027344-18.527344 25.6875zm0 0" fill="#648c15"/><path d="m16.632812 223.339844 1.855469 10.199218c1.914063 8.679688 9.742188 14.761719 18.625 14.480469 9.992188.410157 18.4375-7.335937 18.886719-17.328125.449219 9.992188 8.894531 17.738282 18.886719 17.328125 8.882812.28125 16.707031-5.804687 18.625-14.480469l10.152343-55.917968c.699219-4.046875.140626-8.210938-1.601562-11.929688-22.003906 27.402344-51.785156 47.496094-85.429688 57.648438zm0 0" fill="#f99512"/><path d="m352.480469 271.21875-3.945313 3.945312c-6.527344 6.527344-17.109375 6.527344-23.640625 0-6.523437-6.527343-6.523437-17.109374 0-23.640624l3.945313-3.945313-2.054688-6.566406c-7.289062-23.292969-1.046875-48.707031 16.207032-65.96875 17.253906-17.261719 42.664062-23.515625 65.960937-16.238281l6.566406 2.054687 3.945313-3.945313c6.527344-6.523437 17.109375-6.523437 23.640625 0 6.523437 6.53125 6.523437 17.113282 0 23.640626l-3.945313 3.945312 1.503906 4.070312c9.125 24.738282 2.550782 52.535157-16.6875 70.566407-19.238281 18.027343-47.402343 22.789062-71.496093 12.082031zm0 0" fill="#ffc24f"/><path d="m439.199219 184.5 3.945312-3.945312c4.714844-4.6875 6.191407-11.730469 3.757813-17.914063-2.433594-6.1875-8.3125-10.335937-14.957032-10.554687.214844 4.644531-1.527343 9.167968-4.800781 12.46875l-3.945312 3.945312 1.503906 4.070312c9.136719 24.75 2.5625 52.5625-16.691406 70.597657-19.25 18.035156-47.433594 22.78125-71.53125 12.050781l-3.945313 3.945312c-3.300781 3.277344-7.824218 5.015626-12.472656 4.800782.21875 6.644531 4.367188 12.523437 10.554688 14.957031s13.230468.957031 17.917968-3.757813l3.945313-3.945312c24.09375 10.707031 52.257812 5.945312 71.496093-12.082031 19.238282-18.03125 25.8125-45.828125 16.6875-70.566407zm0 0" fill="#fcb247"/><path d="m216 192.019531c0 30.929688-25.070312 56-56 56s-56-25.070312-56-56c0-30.925781 25.070312-56 56-56s56 25.074219 56 56zm0 0" fill="#e3584b"/><path d="m198.832031 151.722656c4.140625 22-2.847656 44.621094-18.675781 60.449219-15.824219 15.828125-38.445312 22.820313-60.445312 18.679687 14.039062 14.601563 34.871093 20.476563 54.472656 15.363282 19.597656-5.113282 34.902344-20.421875 40.015625-40.019532 5.113281-19.601562-.765625-40.433593-15.367188-54.472656zm0 0" fill="#d45246"/><path d="m186.527344 160.429688-18.527344-6.175782v-42.234375h-16v42.234375l-18.527344 6.175782 5.054688 15.183593 13.472656-4.488281v12.894531h16v-12.894531l13.472656 4.488281zm0 0" fill="#648c15"/><path d="m40 224.019531h64v160h-64zm0 0" fill="#965735"/><path d="m376 224.019531h64v160h-64zm0 0" fill="#965735"/><path d="m8 320.019531h464v64h-464zm0 0" fill="#bf7341"/><path d="m8 224.019531h464v64h-464zm0 0" fill="#bf7341"/><g fill="#965735"><path d="m64 248.019531h16v16h-16zm0 0"/><path d="m400 248.019531h16v16h-16zm0 0"/><path d="m64 344.019531h16v16h-16zm0 0"/><path d="m400 344.019531h16v16h-16zm0 0"/></g><path d="m336 376.019531-56 8v24l56.664062 1.335938zm0 0" fill="#81ad2b"/><path d="m248.472656 440.019531h-184.3125c-9.273437-.367187-16.503906-8.171875-16.160156-17.449219-.175781-7.621093 4.660156-14.460937 11.902344-16.839843l178.832031-44.277344c11.597656-2.882813 23.878906-.101563 33.097656 7.503906s14.289063 19.128907 13.664063 31.0625c.792968 21.257813-15.765625 39.152344-37.023438 40zm0 0" fill="#ff7230"/><path d="m277.480469 375.21875c.6875 24.664062-18.589844 45.289062-43.242188 46.265625h-186.160156c0 .359375-.078125.710937-.078125 1.078125-.347656 9.28125 6.882812 17.089844 16.160156 17.457031h184.3125c21.257813-.847656 37.816406-18.742187 37.023438-40 .054687-8.910156-2.757813-17.605469-8.015625-24.800781zm0 0" fill="#fa6823"/><path d="m248 400.019531v-40c-3.136719.042969-6.253906.515625-9.265625 1.402344l-6.734375 1.695313v36.902343zm0 0" fill="#de5718"/><path d="m192 408.019531h16v32h-16zm0 0" fill="#de5718"/><path d="m160 408.019531v-27.070312l-16 3.957031v23.113281zm0 0" fill="#de5718"/><path d="m40 288.019531h64v16h-64zm0 0" fill="#8e4d30"/><path d="m376 288.019531h64v16h-64zm0 0" fill="#8e4d30"/><path d="m472 216.019531h-19.28125c.578125-10.015625-.878906-20.042969-4.277344-29.480469l.328125-.328124c9.609375-9.671876 9.609375-25.285157 0-34.957032-2.527343-2.492187-5.5625-4.402344-8.898437-5.601562 0-.542969.136718-1.0625.136718-1.601563.003907-5.375-1.355468-10.664062-3.945312-15.375-1.640625-2.859375-1.640625-6.378906 0-9.238281 7.859375-14.273438 3.691406-32.171875-9.664062-41.503906-2.460938-1.816406-3.628907-4.90625-2.984376-7.898438 3.199219-16.503906-7.09375-32.617187-23.414062-36.65625.230469-15.851562-10.816406-29.636718-26.335938-32.863281-5.4375-.953125-11.03125-.5078125-16.25 1.296875-8.675781 3.078125-18.152343 3.078125-26.828124 0v.046875c-1.59375-.589844-3.234376-1.039063-4.90625-1.34375-5.4375-.953125-11.03125-.5078125-16.246094 1.296875-8.679688 3.078125-18.15625 3.078125-26.832032 0-1.609374-.546875-3.257812-.960938-4.929687-1.242188v-.054687c-.542969-.09375-1.097656-.121094-1.648437-.183594-.550782-.0625-1.3125-.175781-1.984376-.214843-.671874-.0429692-1.230468 0-1.847656 0-.800781 0-1.550781 0-2.328125 0-.550781 0-1.101562.117187-1.648437.183593-.542969.0625-1.246094.09375-1.871094.207031-.160156 0-.3125.097657-.472656.128907-1.507813.277343-2.996094.667969-4.445313 1.167969-8.679687 3.078124-18.15625 3.078124-26.832031 0-5.21875-1.8125005-10.8125-2.261719-16.25-1.296876-15.40625 3.207032-26.433594 16.800782-26.398438 32.535157-16.304687 4.265625-26.507812 20.445312-23.328124 36.992187.3125 1.644532.113281 3.34375-.578126 4.863282v-10.878907c0-35.355469-28.660156-64.019531-64.019531-64.019531-35.355469 0-64.019531 28.664062-64.019531 64.019531v81.046875c-2.613281-.671875-5.300781-1.023437-8-1.046875-9.695312-.097656-18.929688 4.121094-25.199219 11.511719-5.511719 6.519531-7.832031 15.152344-6.335937 23.554688l6.734375 37.09375c-4.058594.375-7.1718752 3.765624-7.199219 7.839843v64c0 4.417969 3.582031 8 8 8h24v16h-24c-4.417969 0-8 3.582031-8 8v64c0 4.417969 3.582031 8 8 8h48v-16h-40v-48h448v48h-104v16h112c4.417969 0 8-3.582031 8-8v-64c0-4.417969-3.582031-8-8-8h-24v-16h24c4.417969 0 8-3.582031 8-8v-64c0-4.417969-3.582031-8-8-8zm-46.878906-53.449219c3.402344-3.40625 8.925781-3.40625 12.332031-.003906 3.40625 3.40625 3.40625 8.925782.003906 12.332032l-3.945312 3.9375c-2.207031 2.207031-2.933594 5.496093-1.855469 8.425781l1.503906 4.078125c2.945313 7.875 4.128906 16.300781 3.464844 24.679687h-104.625c1.539062-15.976562 9.65625-30.59375 22.398438-40.351562 14.796874-11.511719 34.320312-14.972657 52.167968-9.246094l6.578125 2.046875c2.839844.882812 5.9375.121094 8.039063-1.984375zm-62.402344-145.65625c2.640625-.917968 5.472656-1.136718 8.226562-.636718 7.878907 1.847656 13.347657 9.015625 13.054688 17.101562.105469 7.207032 5.058594 13.433594 12.054688 15.160156 7.039062 1.84375 11.945312 8.207032 11.945312 15.480469 0 .996094-.09375 1.992188-.28125 2.96875-1.847656 9.1875 1.875 18.605469 9.503906 24.046875 6.636719 4.648438 8.707032 13.550782 4.800782 20.648438-4.246094 7.675781-4.246094 16.996094 0 24.671875 1.300781 2.34375 1.980468 4.984375 1.976562 7.664062 0 .425781-.070312.800781-.105469 1.25-3.800781 1.144531-7.265625 3.203125-10.09375 5.992188l-.511719.519531-1.953124-.609375c-6.378907-1.976563-12.992188-3.085937-19.664063-3.304687.183594-1.273438.296875-2.558594.328125-3.847657.003906-5.375-1.355469-10.664062-3.945312-15.375-1.640626-2.863281-1.640626-6.378906 0-9.242187 7.839843-14.261719 3.675781-32.136719-9.65625-41.46875-2.460938-1.816406-3.628907-4.90625-2.984376-7.898438 3.199219-16.503906-7.09375-32.617187-23.414062-36.65625-.035156-4.714844-1.042969-9.375-2.960938-13.6875 4.65625-.355468 9.246094-1.289062 13.671876-2.777344zm-106.71875 16.464844c-.191406-7.308594 4.25-13.945312 11.078125-16.558594.9375-.292968 1.898437-.492187 2.875-.601562.679687-.074219 1.363281-.101562 2.046875-.085938.707031-.015624 1.410156.019532 2.113281.101563 1.085938.117187 2.160157.34375 3.199219.679687 12.105469 4.277344 25.308594 4.277344 37.414062 0 2.640626-.917968 5.476563-1.136718 8.226563-.636718 7.875 1.851562 13.34375 9.015625 13.046875 17.101562.105469 7.207032 5.058594 13.433594 12.054688 15.160156 7.039062 1.84375 11.945312 8.207032 11.945312 15.480469 0 .996094-.09375 1.992188-.28125 2.96875-1.851562 9.1875 1.871094 18.605469 9.503906 24.046875 6.636719 4.648438 8.707032 13.550782 4.800782 20.648438-4.246094 7.675781-4.246094 16.996094 0 24.671875 1.300781 2.34375 1.980468 4.984375 1.976562 7.664062.003906 1.742188-.289062 3.46875-.863281 5.113281-11.117188 2.183594-21.570313 6.929688-30.527344 13.863282-16.679687 12.78125-27.121094 32.070312-28.699219 53.023437h-11.910156v-19.71875l20.441406-13.601562-8.882812-13.3125-11.558594 7.679687v-20.796875l44.441406-29.601562-8.882812-13.3125-35.558594 23.710937v-37.046875l28.800781-21.597656-9.601562-12.800781-19.199219 14.398437v-40h-16v40l-19.199219-14.398437-9.601562 12.800781 28.800781 21.597656v37.046875l-35.558594-23.703125-8.882812 13.3125 44.441406 29.625v20.800781l-11.558594-7.707031-8.882812 13.3125 20.441406 13.59375v19.71875h-19.496094l-4.734375-19.367187c-.539062-2.199219-1.980469-4.066406-3.972656-5.140625s-4.34375-1.257813-6.476563-.5c-4.207031 1.714843-8.988281 1.261719-12.800781-1.207031-4.027343-2.210938-6.980469-5.964844-8.183593-10.402344-.191407-.894532-.300782-1.804688-.335938-2.71875-.117188-7.796875-3.683594-15.144532-9.742188-20.054688-6.265624-4.753906-8.097656-13.378906-4.3125-20.273437 4.246094-7.675781 4.246094-16.996094 0-24.671875-3.90625-7.097656-1.835937-16 4.796876-20.648438 7.632812-5.4375 11.355468-14.851562 9.515624-24.039062-.183593-.980469-.269531-1.976563-.257812-2.976563 0-7.273437 4.90625-13.636719 11.945312-15.480469 6.996094-1.726562 11.949219-7.953124 12.054688-15.160156zm-4 182.640625h-32.878906c2.574218-6.335937 4.105468-13.046875 4.535156-19.871093 2.5 2.960937 5.472656 5.480468 8.800781 7.464843 5.277344 3.222657 11.425781 4.734375 17.597657 4.328125zm-77.230469-124.984375c7.628907-5.4375 11.359375-14.851562 9.519531-24.039062-.195312-.980469-.292968-1.976563-.289062-2.976563 0-7.273437 4.90625-13.636719 11.945312-15.480469 6.996094-1.726562 11.949219-7.953124 12.054688-15.160156-.292969-8.09375 5.1875-15.261718 13.070312-17.101562 2.753907-.503906 5.585938-.28125 8.226563.636718 4.402344 1.476563 8.96875 2.40625 13.597656 2.769532-1.894531 4.207031-2.910156 8.753906-2.972656 13.367187-16.304687 4.265625-26.507813 20.445313-23.328125 36.992188.644531 2.988281-.523438 6.078125-2.984375 7.890625-13.328125 9.332031-17.488281 27.203125-9.648437 41.460937 1.640624 2.863281 1.640624 6.378907 0 9.242188-2.277344 4.1875-3.585938 8.835937-3.832032 13.597656-8.019531-6.496094-17.5-10.945313-27.625-12.964844 1.304688-5.980469.410156-12.230469-2.527344-17.601562-3.902343-7.097657-1.832031-15.996094 4.800782-20.648438zm-6.769531 80.089844 13.472656 4.488281 5.054688-15.203125-18.527344-6.15625v-9.515625c15.527344 2.550781 28.800781 12.59375 35.484375 26.839844 6.679687 14.246094 5.910156 30.871094-2.058594 44.441406h-82.839843c-4.289063-7.273437-6.5625-15.558593-6.585938-24 .042969-23.394531 16.933594-43.359375 40-47.28125v9.515625l-18.527344 6.175782 5.054688 15.199218 13.472656-4.503906v12.894531h16zm-112-107.105469c0-26.507812 21.492188-48 48-48s48 21.492188 48 48v64.550781c-15.480469 1.964844-29.707031 9.527344-40 21.257813v-10.496094l25.65625-25.65625-11.3125-11.3125-14.34375 14.34375v-25.375l25.65625-25.65625-11.3125-11.3125-14.34375 14.34375v-28.6875h-16v28.6875l-14.34375-14.34375-11.3125 11.3125 25.65625 25.65625v25.375l-14.34375-14.34375-11.3125 11.3125 1.25 1.25c-6.207031 3.132813-11.558594 7.726563-15.59375 13.390625zm25.65625 60.96875 14.34375 14.34375v8.878907c-9.71875-5.472657-21.5625-5.59375-31.390625-.320313 1.910156-9.480469 8.746094-17.214844 17.917969-20.277344zm-62.566406 40.800781c3.230468-3.746093 7.960937-5.859374 12.910156-5.769531 8.273438-.503906 15.410156 5.75 16 14.015625 0 4.417969 3.582031 8 8 8s8-3.582031 8-8c.589844-8.265625 7.726562-14.519531 16-14.015625 4.949219-.089843 9.679688 2.023438 12.910156 5.769531 2.480469 2.855469 3.542969 6.675782 2.890625 10.398438l-7.234375 39.832031h-65.132812l-7.203125-39.800781c-.667969-3.730469.378906-7.5625 2.859375-10.429688zm76.910156 146.230469h-48v-16h48zm272 0h-256v-16h256zm64 0h-48v-16h48zm32-32h-448v-48h448zm0 0"/><path d="m64 248.019531h16v16h-16zm0 0"/><path d="m400 248.019531h16v16h-16zm0 0"/><path d="m64 344.019531h16v16h-16zm0 0"/><path d="m400 344.019531h16v16h-16zm0 0"/><path d="m40 422.5625c-.332031 13.691406 10.46875 25.074219 24.160156 25.457031h184.320313c19.53125-.394531 36.617187-13.257812 42.398437-31.917969l45.601563 1.246094h.214843c2.152344 0 4.210938-.863281 5.71875-2.402344 1.503907-1.535156 2.328126-3.613281 2.28125-5.765624l-.695312-33.320313c-.046875-2.292969-1.070312-4.453125-2.820312-5.9375-1.746094-1.484375-4.046876-2.148437-6.316407-1.820313l-48.085937 6.871094c-3.140625-5.542968-7.375-10.386718-12.449219-14.242187-10.679687-8.160157-24.597656-10.777344-37.511719-7.046875l-179.199218 44.367187c-10.621094 3.410157-17.769532 13.359375-17.617188 24.511719zm288.183594-37.34375.3125 15.90625-35-.960938v-.144531c-.023438-3.261719-.355469-6.511719-1-9.710937zm-266.351563 28.28125 82.167969-20.351562v14.871093h16v-18.832031l72-17.832031v28.664062h16v-31.960937c.199219 0 .40625-.046875.609375-.046875 5.835937.035156 11.503906 1.976562 16.132813 5.535156 8.164062 6.339844 12.882812 16.140625 12.753906 26.472656.765625 16.828125-12.191406 31.121094-29.015625 32h-40.480469v-24h-16v24h-127.839844c-4.851562-.386719-8.488281-4.601562-8.160156-9.457031-.191406-3.953125 2.152344-7.59375 5.832031-9.0625zm0 0"/></svg>